<svg xmlns="http://www.w3.org/2000/svg" viewBox="0 0 700.13 800">
    <defs>
        <style>.cls-1{fill:#FFFFFF;}</style>
    </defs>
    <g class="cls-1">
        <path d="M14.59,235.79l14.59-8.43,116.68,67.38-14.59,8.43Zm32.82-18.95L62,208.41l116.68,67.38-14.59,8.43Zm32.81-19,14.59-8.43,116.68,67.37-14.59,8.44ZM113,178.94l14.59-8.43,116.68,67.37-14.56,8.43ZM145.86,160l14.58-8.41,116.68,67.35-14.58,8.43Zm32.81-18.93,14.59-8.43L310,200l-14.62,8.4Zm32.82-19,14.59-8.43,116.7,67.38-14.58,8.43Zm32.82-19,14.59-8.43L375.57,162.1,361,170.54Zm32.81-19,14.59-8.43,116.71,67.37-14.59,8.43ZM310,65.26l14.56-8.43L441.24,124.2l-14.59,8.43Zm32.81-19,14.57-8.41,116.7,67.35-14.59,8.43L342.78,46.31Zm32.79-19L390.16,19,506.87,86.33l-14.59,8.43ZM408.42,8.43,423,0,539.69,67.37,525.1,75.81ZM14.59,404.22,0,395.78V261l14.59,8.43Zm34.05,19.64-14.59-8.43V280.71l14.59,8.41Zm34,19.65-14.59-8.43V300.36l14.59,8.4Zm34,19.65-14.59-8.43V320l14.59,8.4Zm29.18,0,14.58-8.43V320l-14.58,8.4Zm31-17.91,14.59-8.4V302.1l-14.59,8.43Zm31-17.88,14.59-8.43V284.22l-14.59,8.4Zm31-17.91,14.58-8.4V266.31l-14.58,8.43Zm31-17.88,14.59-8.43V248.43l-14.59,8.4Zm31-17.91,14.59-8.4V230.52L300.84,239Zm31-17.88,14.58-8.43V212.64l-14.58,8.41Zm31-17.9,14.59-8.41V194.73l-14.61,8.41,0,134.75Zm31-17.88,14.56-8.44,0-134.74-14.62,8.43,0,134.75Zm14.56,480-14.59-8.43V656.85l14.59,8.4Zm-32.82-19L361,772.62V637.9l14.58,8.4ZM342.76,762.1l-14.59-8.41V618.94l14.59,8.44V762.1Zm-32.82-19-14.59-8.41V600l14.59,8.43Zm-32.82-18.93-14.58-8.43V581l14.58,8.43Zm-32.81-19-14.59-8.43V562.12l14.59,8.4Zm-32.82-18.95-14.59-8.43V543.17l14.59,8.4Zm-32.82-19-14.59-8.43V524.21l14.59,8.41Zm-32.81-19L131.27,640V505.26l14.59,8.41Zm-32.82-19-14.59-8.4V486.31L113,494.72Zm-32.82-19-14.59-8.4V467.36l14.59,8.43Zm-32.81-19-14.59-8.4V448.41l14.59,8.43ZM14.59,572.64,0,564.21V429.46l14.59,8.43ZM554.25,715.79v16.84L437.57,800V783.16Zm0-39.3v16.84L437.57,760.71V743.84l116.68-67.35Zm0-39.29V654L437.57,721.41V704.55L554.25,637.2Zm0-39.29v16.83l-116.7,67.38V665.25l116.7-67.34Zm-14.58-25.27-14.59-8.43L408.39,631.58,423,640Zm-31-17.91L494.1,546.3,377.39,613.67,392,622.1l116.71-67.37Zm-31-17.88-14.59-8.43L346.4,595.79,361,604.2l116.7-67.35Zm-31-17.91-14.59-8.43L315.43,577.88,330,586.32Zm-31-17.88-14.59-8.43L284.43,560,299,568.43,415.7,501.06Zm-31-17.91-14.59-8.43L253.43,542.1,268,550.53Zm-31-17.88-14.59-8.43L222.44,524.21,237,532.65Zm-31-17.9L308.12,439,191.44,506.31,206,514.74Zm-31-17.89-14.59-8.43L160.44,488.43,175,496.86ZM700.13,176.83v16.86L583.45,261.06l0-16.86Zm0,37.9v16.84L583.45,298.94l0-16.84Zm0,37.9v16.84L583.45,336.84l0-16.83Zm0,37.9v16.84L583.42,374.74V357.88Zm0,37.88v16.86L583.42,412.62V395.78l116.71-67.37Zm0,37.9v16.84L583.42,450.52V433.69Zm0,37.91v16.83L583.42,488.43V471.56l116.71-67.34Zm0,37.87V459L583.42,526.3V509.47l116.71-67.38Zm0,37.9v16.84L583.42,564.21V547.37Zm0,37.91v16.83L583.42,602.11V585.24L700.13,517.9Zm0,37.87v16.87L583.42,640V623.15l116.71-67.38Zm0,37.91v16.83L583.42,677.89V661.05Zm0,37.9v16.84L583.42,715.79V699ZM554.27,92.64l14.57-8.43,116.7,67.37L671,160,554.27,92.64Zm-34,19.65,14.58-8.43,116.68,67.37-14.58,8.41Zm-34,19.62,14.59-8.4,116.68,67.37-14.59,8.4Zm-34,19.65,14.58-8.41L583.42,210.5l-14.58,8.43Zm-14.59,25.27v16.86l116.68,67.37V244.2Zm0,35.81v16.84l116.68,67.37V280Zm0,35.79v16.84l116.68,67.37,0-16.86Zm0,35.79v16.83l116.68,67.38,0-16.87Zm0,35.79v16.83l116.68,67.38,0-16.87Zm0,35.78v16.84L554.25,440l0-16.86-116.7-67.35Zm0,35.79v16.84l116.68,67.37,0-16.83Zm0,35.79v16.84l116.7,67.37V494.72l-116.7-67.35Zm0,35.79V480l116.7,67.38V530.53Z"/>
    </g>
</svg>