<svg xmlns="http://www.w3.org/2000/svg" viewBox="0 0 800 800"><defs><style>.cls-1{fill:#fa6663;}.cls-2{fill:#fbb355;}</style></defs><g id="图层_2" data-name="图层 2"><g id="图层_1-2" data-name="图层 1"><path class="cls-1" d="M583.33,366.67c-119.69,0-216.67,96.94-216.67,216.67S463.64,800,583.33,800,800,703,800,583.33,703,366.67,583.33,366.67Zm0,366.66a150,150,0,1,1,150-150A150,150,0,0,1,583.33,733.33Z"/><path class="cls-2" d="M666.67,0A133.36,133.36,0,0,0,533.33,133.35a133.33,133.33,0,0,1-266.66,0A133.34,133.34,0,1,0,133.33,266.66a133.33,133.33,0,0,1,0,266.66A133.34,133.34,0,1,0,266.66,666.67c0-220.87,179.07-400,400-400A133.33,133.33,0,1,0,666.67,0ZM133.33,200A66.67,66.67,0,1,1,200,133.33,66.66,66.66,0,0,1,133.33,200Zm0,533.33A66.67,66.67,0,1,1,200,666.67,66.68,66.68,0,0,1,133.33,733.33ZM666.67,200a66.67,66.67,0,1,1,66.66-66.67A66.65,66.65,0,0,1,666.67,200Z"/></g></g></svg>